HIERARCHY
ROOT Hips
{
	OFFSET 0.00000 0.00000 0.00000
	CHANNELS 6 Xposition Yposition Zposition Zrotation Yrotation Xrotation 
	JOINT LHipJoint
	{
		OFFSET 0 0 0
		CHANNELS 3 Zrotation Yrotation Xrotation
		JOINT LeftHip
		{
			OFFSET 2.36090 -1.39315 1.24752
			CHANNELS 3 Zrotation Yrotation Xrotation
			JOINT LeftKnee
			{
				OFFSET 2.06810 -5.68207 0.00000
				CHANNELS 3 Zrotation Yrotation Xrotation
				JOINT LeftAnkle
				{
					OFFSET 2.46631 -6.77613 0.00000
					CHANNELS 3 Zrotation Yrotation Xrotation
					JOINT LeftToe
					{
						OFFSET 0.26031 -0.71520 1.99545
						CHANNELS 3 Zrotation Yrotation Xrotation
						End Site
						{
							OFFSET 0.00000 -0.00000 1.05957
						}
					}
				}
			}
		}
	}
	JOINT RHipJoint
	{
		OFFSET 0 0 0
		CHANNELS 3 Zrotation Yrotation Xrotation
		JOINT RightHip
		{
			OFFSET -2.25243 -1.39315 1.24752
			CHANNELS 3 Zrotation Yrotation Xrotation
			JOINT RightKnee
			{
				OFFSET -2.17343 -5.97145 0.00000
				CHANNELS 3 Zrotation Yrotation Xrotation
				JOINT RightAnkle
				{
					OFFSET -2.52372 -6.93386 0.00000
					CHANNELS 3 Zrotation Yrotation Xrotation
					JOINT RightToe
					{
						OFFSET -0.22538 -0.61923 2.11447
						CHANNELS 3 Zrotation Yrotation Xrotation
						End Site
						{
							OFFSET -0.00000 -0.00000 1.10506
						}
					}
				}
			}
		}
	}
	JOINT lowerback
	{
		OFFSET 0 0 0
		CHANNELS 3 Zrotation Yrotation Xrotation
		JOINT Chest
		{
			OFFSET 0.01594 2.13103 0.08007
			CHANNELS 3 Zrotation Yrotation Xrotation
			JOINT Chest2
			{
				OFFSET 0.01393 2.09723 0.18338
				CHANNELS 3 Zrotation Yrotation Xrotation
				JOINT lowerneck
				{
					OFFSET 0 0 0
					CHANNELS 3 Zrotation Yrotation Xrotation
					JOINT Neck
					{
						OFFSET 0.05351 1.38915 0.32494
						CHANNELS 3 Zrotation Yrotation Xrotation
						JOINT Head
						{
							OFFSET 0.00711 1.45992 -0.21666
							CHANNELS 3 Zrotation Yrotation Xrotation
							End Site
							{
								OFFSET -0.00433 1.47702 -0.11056
							}
						}
					}
				}
				JOINT LeftCollar
				{
					OFFSET 0 0 0
					CHANNELS 3 Zrotation Yrotation Xrotation
					JOINT LeftShoulder
					{
						OFFSET 2.87198 0.92249 0.11132
CHANNELS 3 Zrotation Xrotation Yrotation
						JOINT LeftElbow
						{
OFFSET 0 -5.527310 0.000000
CHANNELS 3 Zrotation Xrotation Yrotation
							JOINT LeftWrist
							{
OFFSET 0 -3.110590 0.000000
CHANNELS 3 Zrotation Xrotation Yrotation
								JOINT lhand
								{
									OFFSET 0 0 0
CHANNELS 3 Zrotation Xrotation Yrotation
									JOINT LFingers
									{
OFFSET 0 -0.419630 0.000000
CHANNELS 3 Zrotation Xrotation Yrotation
										End Site
										{
OFFSET 0 -0.338310 0.000000
										}
									}
								}
								JOINT LThumb
								{
OFFSET 0 0.000000 0.000000
CHANNELS 3 Zrotation Xrotation Yrotation
									End Site
									{
OFFSET 0 -0.343480 0.343480
									}
								}
							}
						}
					}
				}
				JOINT RightCollar
				{
					OFFSET 0 0 0
					CHANNELS 3 Zrotation Yrotation Xrotation
					JOINT RightShoulder
					{
						OFFSET -2.94710 0.68072 0.32187
CHANNELS 3 Zrotation Xrotation Yrotation
						JOINT RightElbow
						{
OFFSET 0 -5.253960 -0.000000
CHANNELS 3 Zrotation Xrotation Yrotation
							JOINT RightWrist
							{
OFFSET 0 -3.105670 0.000000
CHANNELS 3 Zrotation Xrotation Yrotation
								JOINT rhand
								{
									OFFSET 0 0 0
CHANNELS 3 Zrotation Xrotation Yrotation
									JOINT RFingers
									{
OFFSET 0 -0.498680 0.000000
CHANNELS 3 Zrotation Xrotation Yrotation
										End Site
										{
OFFSET 0 -0.402040 0.000000
										}
									}
								}
								JOINT RThumb
								{
OFFSET 0 0.000000 0.000000
CHANNELS 3 Zrotation Xrotation Yrotation
									End Site
									{
OFFSET 0 -0.408180 0.408180
									}
								}
							}
						}
					}
				}
			}
		}
	}
}
MOTION
Frames: 8
Frame Time: 0.008333333333333333
3.592800 15.406400 27.720900 -2.384400 -27.465900 26.724100 0.000000 0.000000 0.000000 6.168400 -35.648600 -46.895800 4.735700 13.079800 39.668000 0.519100 -5.920200 -12.876600 3.978700 -12.132000 -36.200500 0.000000 0.000000 0.000000 14.476600 34.259200 -32.488800 -4.455800 -12.743400 38.415200 -1.022900 -0.152600 -19.178300 -0.173700 2.684900 -7.402600 5.446300 -1.814700 -16.231900 2.771400 -3.395300 -8.009500 -0.700700 -1.874800 0.413200 -1.562400 -2.909300 -27.527200 0.780800 -3.870800 27.940800 -0.200600 -1.742700 14.219000 0.000000 0.000000 0.000000 38.207700 -10.824900 -43.151900 51.353100 -53.526900 27.258500 37.201400 -47.237400 -25.543600 0.000000 0.000000 0.000000 -7.125000 0.000000 0.000000 9.087200 60.715200 -3.497600 0.000000 0.000000 0.000000 -35.548000 -26.307200 56.655200 -58.635600 -55.935300 -33.208300 -42.027900 -17.303200 45.253000 0.000000 0.000000 0.000000 7.125000 0.000000 -0.000000 -9.465900 83.533100 8.345200
3.602545 15.402265 27.845640 -2.667467 -29.047960 26.554507 0.000000 0.000000 0.000000 7.676093 -37.805553 -45.131462 3.821717 11.915522 35.438801 0.621194 -3.447143 -14.118445 4.490051 -12.785199 -38.570031 0.000000 0.000000 0.000000 14.503702 34.620417 -31.538658 -4.374178 -12.642315 38.043854 -1.051366 0.703386 -19.163315 -0.177366 2.712829 -7.480188 5.356257 -1.584832 -15.859959 2.626424 -3.058882 -7.802036 -0.742188 -1.701783 0.453090 -1.425140 -2.915221 -27.572637 0.932125 -3.978339 27.584580 -0.180721 -1.752071 14.076329 0.000000 0.000000 0.000000 38.318158 -10.342990 -43.314033 51.395103 -53.542866 27.292342 37.582824 -46.986447 -25.507883 0.000000 0.000000 0.000000 -7.125000 0.000000 0.000000 9.581565 60.777914 -3.704396 0.000000 0.000000 0.000000 -34.773834 -26.228197 56.936730 -57.838867 -55.705863 -32.549194 -41.733182 -17.282264 45.097560 0.000000 0.000000 0.000000 7.125000 0.000000 0.000000 -8.575537 83.270553 7.519391
3.612139 15.395182 27.952346 -2.942367 -30.606171 26.828730 0.000000 0.000000 0.000000 9.382968 -39.532831 -44.143451 3.048280 10.771456 31.514269 0.638476 -2.150630 -14.513211 4.762629 -13.111339 -39.786709 0.000000 0.000000 0.000000 14.121245 35.485499 -31.253014 -4.339057 -12.598390 37.883016 -1.068581 1.180319 -19.182664 -0.181421 2.743558 -7.565586 5.025208 -1.416259 -15.705566 2.544344 -2.785691 -7.718764 -0.599122 -1.556975 0.489002 -1.286303 -2.892203 -27.914234 1.162322 -4.071131 27.387479 -0.132213 -1.739336 14.065169 0.000000 0.000000 0.000000 38.518432 -9.950257 -43.380986 51.598739 -53.620284 27.456153 37.990148 -46.514090 -25.709428 0.000000 0.000000 0.000000 -7.125000 0.000000 0.000000 10.090873 61.120187 -3.985505 0.000000 0.000000 0.000000 -34.120992 -26.266645 57.160532 -57.171984 -55.507936 -31.998817 -40.790963 -18.089334 44.686677 0.000000 0.000000 0.000000 7.125000 0.000000 0.000000 -5.833929 82.512379 5.025781
3.633823 15.379907 28.050623 -2.985087 -31.652247 27.206026 0.000000 0.000000 0.000000 10.630943 -40.605020 -44.048519 2.476268 9.792871 28.310091 0.648226 -2.844317 -14.511067 4.847277 -13.209712 -40.158680 0.000000 0.000000 0.000000 13.465600 36.019825 -31.556335 -4.381214 -12.651076 38.076077 -1.104384 1.551880 -19.408667 -0.187464 2.788181 -7.689647 4.619432 -1.441450 -15.618900 2.483020 -2.758676 -7.792330 -0.427594 -1.539607 0.386030 -1.263228 -2.886514 -28.122273 1.421656 -4.150008 27.193942 -0.048468 -1.730543 14.032477 0.000000 0.000000 0.000000 38.706257 -9.533718 -43.474133 51.932014 -53.745597 27.724750 38.338499 -46.032026 -25.999232 0.000000 0.000000 0.000000 -7.125000 0.000000 0.000000 10.524252 61.548676 -4.265640 0.000000 0.000000 0.000000 -33.592158 -26.230457 57.388661 -56.585367 -55.329139 -31.515892 -40.516055 -18.252067 44.484803 0.000000 0.000000 0.000000 7.125000 0.000000 0.000000 -5.285340 82.208515 4.521306
3.655587 15.365375 28.148906 -3.183990 -32.834744 27.526957 0.000000 0.000000 0.000000 10.762745 -40.493646 -43.928239 2.127406 9.126044 26.190814 0.635343 -5.267454 -14.202138 4.829520 -13.189253 -40.080977 0.000000 0.000000 0.000000 13.020485 36.609097 -31.631839 -4.407438 -12.683692 38.195693 -1.138159 2.001598 -19.599877 -0.192342 2.824548 -7.790705 4.205308 -1.425398 -15.394584 2.427361 -2.669638 -7.834701 -0.232179 -1.489934 0.245921 -1.187136 -2.853708 -28.332931 1.673949 -4.214366 27.060898 0.026041 -1.710500 14.024809 0.000000 0.000000 0.000000 38.979974 -9.170061 -43.572454 52.404078 -53.920193 28.105807 39.048163 -46.005446 -25.330261 0.000000 0.000000 0.000000 -7.125000 0.000000 0.000000 11.500852 60.975763 -4.509913 0.000000 0.000000 0.000000 -33.107488 -26.122407 57.565971 -56.105716 -55.179563 -31.121801 -41.041386 -17.585873 44.557714 0.000000 0.000000 0.000000 7.125000 0.000000 0.000000 -6.957143 82.477217 5.989253
3.681543 15.351434 28.253062 -3.536649 -34.165928 27.787486 0.000000 0.000000 0.000000 10.198582 -39.854841 -43.592387 1.960441 8.783223 25.119495 0.463088 -8.004128 -12.540442 4.835102 -13.195602 -40.105158 0.000000 0.000000 0.000000 12.734746 37.372263 -31.381446 -4.402398 -12.677434 38.172564 -1.164982 2.395243 -19.747736 -0.198427 2.868523 -7.912866 3.861897 -1.318073 -15.101646 2.334144 -2.467667 -7.827179 -0.098494 -1.384048 0.118919 -1.160322 -2.852151 -28.516168 2.000069 -4.329722 26.975118 0.128095 -1.706546 14.036822 0.000000 0.000000 0.000000 39.286073 -8.898791 -43.712874 53.013337 -54.140771 28.598957 39.913799 -46.307602 -24.049834 0.000000 0.000000 0.000000 -7.125000 0.000000 0.000000 12.650251 59.724979 -4.591319 0.000000 0.000000 0.000000 -32.651686 -25.891648 57.602267 -55.674237 -55.042449 -30.767823 -41.005630 -17.503328 44.484827 0.000000 0.000000 0.000000 7.125000 0.000000 0.000000 -6.962753 82.391220 5.982357
3.717197 15.335581 28.363264 -4.002957 -35.588628 28.148997 0.000000 0.000000 0.000000 9.471010 -39.009762 -43.127135 1.916004 8.688909 24.826927 0.203829 -9.727786 -9.877548 4.697833 -13.035129 -39.500236 0.000000 0.000000 0.000000 12.399679 38.334281 -31.136805 -4.390977 -12.663246 38.120680 -1.188446 2.700005 -19.888672 -0.204762 2.913804 -8.038817 3.594910 -1.181526 -14.901512 2.217744 -2.244729 -7.785321 -0.033499 -1.268202 0.071224 -1.113789 -2.824890 -28.743641 2.369499 -4.433696 26.921861 0.246030 -1.688066 14.073016 0.000000 0.000000 0.000000 39.601870 -8.670037 -43.723826 53.735777 -54.395227 29.185373 40.306655 -46.284786 -23.607439 0.000000 0.000000 0.000000 -7.125000 0.000000 0.000000 13.148019 59.312953 -4.646420 0.000000 0.000000 0.000000 -32.188348 -25.709034 57.591097 -55.238351 -54.901436 -30.410908 -40.304783 -18.151723 44.211175 0.000000 0.000000 0.000000 7.125000 0.000000 0.000000 -5.110848 81.856743 4.337432
3.762203 15.320890 28.479185 -4.545112 -37.115374 28.657041 0.000000 0.000000 0.000000 8.506707 -37.781843 -42.588413 1.943473 8.747273 25.007986 0.098788 -9.889738 -8.491134 4.584737 -12.900261 -38.996378 0.000000 0.000000 0.000000 11.919330 39.465738 -31.029712 -4.380950 -12.650785 38.074961 -1.209181 2.936881 -20.020778 -0.209556 2.947347 -8.132246 3.344599 -1.067613 -14.838287 2.091395 -2.062760 -7.715646 0.000865 -1.172264 0.121911 -0.938141 -2.709173 -29.088744 2.717579 -4.465819 26.919743 0.347768 -1.625662 14.149984 0.000000 0.000000 0.000000 39.919288 -8.427895 -43.452766 54.516426 -54.662152 29.821159 40.020511 -45.815063 -24.342329 0.000000 0.000000 0.000000 -7.125000 0.000000 0.000000 12.791201 60.096309 -4.757465 0.000000 0.000000 0.000000 -31.675299 -25.674918 57.656711 -54.798533 -54.756515 -30.051441 -39.626436 -18.774713 43.950499 0.000000 0.000000 0.000000 7.125000 0.000000 0.000000 -3.487221 81.341462 2.923130
